<svg width="123" height="123" fill="none" xmlns="http://www.w3.org/2000/svg"><path d="M0 61.441l.018-.001c0-16.975 6.872-32.334 17.98-43.443C29.106 6.89 44.465.018 61.44.018V0h.002v.018c16.974 0 32.335 6.872 43.443 17.98 11.108 11.108 17.98 26.467 17.98 43.441h.018v.002h-.018c0 16.976-6.873 32.335-17.98 43.443-11.109 11.107-26.467 17.979-43.442 17.979v.018h-.002v-.018c-16.975 0-32.335-6.872-43.443-17.98C6.89 93.775.018 78.417.018 61.442L0 61.441zm42.48-10.259a4.957 4.957 0 10-6.912 7.106l22.521 21.839 3.456-3.553-3.46 3.568a4.972 4.972 0 007.189-.283L87.33 58.288a4.957 4.957 0 10-6.912-7.106L61.53 69.655 42.48 51.182z" fill="#FFBC2E"/></svg>