<svg viewBox="0 0 61 60" xmlns="http://www.w3.org/2000/svg"><path d="M59.886 17.64c-.14-3.188-.656-5.38-1.395-7.279a14.642 14.642 0 00-3.47-5.32 14.77 14.77 0 00-5.31-3.459C47.8.844 45.618.328 42.43.188 39.217.035 38.197 0 30.05 0c-8.148 0-9.168.035-12.369.176-3.188.14-5.38.656-7.28 1.394A14.643 14.643 0 005.08 5.04a14.772 14.772 0 00-3.459 5.31C.883 12.26.367 14.44.226 17.628.074 20.84.04 21.86.04 30.006s.035 9.166.175 12.366c.141 3.188.657 5.38 1.396 7.279a14.795 14.795 0 003.47 5.32 14.77 14.77 0 005.31 3.459c1.911.738 4.092 1.254 7.28 1.394 3.2.141 4.221.176 12.369.176s9.167-.035 12.368-.176c3.189-.14 5.38-.656 7.28-1.394a15.349 15.349 0 008.78-8.78c.739-1.91 1.255-4.09 1.396-7.278.14-3.2.176-4.22.176-12.366s-.012-9.166-.153-12.366zm-5.404 24.497c-.13 2.93-.621 4.513-1.032 5.568a9.954 9.954 0 01-5.698 5.696c-1.055.41-2.649.903-5.568 1.031-3.165.142-4.115.176-12.122.176s-8.968-.034-12.122-.175c-2.93-.13-4.514-.621-5.569-1.032a9.234 9.234 0 01-3.446-2.239 9.328 9.328 0 01-2.24-3.445c-.41-1.055-.902-2.65-1.03-5.568-.142-3.165-.177-4.114-.177-12.12 0-8.005.035-8.966.176-12.12.129-2.93.621-4.512 1.032-5.567a9.12 9.12 0 012.25-3.446 9.316 9.316 0 013.447-2.238c1.055-.41 2.65-.903 5.569-1.032 3.165-.14 4.115-.176 12.122-.176 8.019 0 8.968.036 12.122.176 2.93.13 4.513.621 5.568 1.032a9.228 9.228 0 013.447 2.238 9.327 9.327 0 012.24 3.446c.41 1.055.902 2.65 1.03 5.568.142 3.165.177 4.114.177 12.12 0 8.005-.035 8.943-.176 12.107z" fill="#FFBC2E"/><path d="M30.05 14.593c-8.51 0-15.416 6.903-15.416 15.413 0 8.51 6.906 15.413 15.417 15.413s15.416-6.903 15.416-15.413c0-8.51-6.905-15.413-15.416-15.413zm0 25.411c-5.52 0-10-4.477-10-9.998 0-5.52 4.48-9.998 10-9.998 5.522 0 10 4.477 10 9.998 0 5.52-4.477 9.998-10 9.998zm19.626-26.021a3.599 3.599 0 11-7.198-.001 3.599 3.599 0 017.198.001z" fill="#FFBC2E"/></svg>